HIERARCHY
ROOT root
{
  OFFSET 0 87.9003 0
  CHANNELS 6 Xposition Yposition Zposition Zrotation Xrotation Yrotation
  JOINT torso_1
  {
    OFFSET 0 4.78511 -1.08482
    CHANNELS 6 Xposition Yposition Zposition Zrotation Xrotation Yrotation
    JOINT torso_2
    {
      OFFSET 0 5.29195 1.00949
      CHANNELS 6 Xposition Yposition Zposition Zrotation Xrotation Yrotation
      JOINT torso_3
      {
        OFFSET -9.66735e-18 5.64355 0.108362
        CHANNELS 6 Xposition Yposition Zposition Zrotation Xrotation Yrotation
        JOINT torso_4
        {
          OFFSET -1.04072e-17 6.12977 -0.417886
          CHANNELS 6 Xposition Yposition Zposition Zrotation Xrotation Yrotation
          JOINT torso_5
          {
            OFFSET -1.85891e-17 7.16586 -1.41888
            CHANNELS 6 Xposition Yposition Zposition Zrotation Xrotation Yrotation
            JOINT torso_6
            {
              OFFSET -2.38665e-17 8.94839 -0.861631
              CHANNELS 6 Xposition Yposition Zposition Zrotation Xrotation Yrotation
              JOINT torso_7
              {
                OFFSET -2.73615e-17 9.94144 1.48576
                CHANNELS 6 Xposition Yposition Zposition Zrotation Xrotation Yrotation
                JOINT neck_1
                {
                  OFFSET -1.21725e-17 4.50977 0.67399
                  CHANNELS 6 Xposition Yposition Zposition Zrotation Xrotation Yrotation
                  JOINT neck_2
                  {
                    OFFSET -1.70689e-17 4.54241 0.39741
                    CHANNELS 6 Xposition Yposition Zposition Zrotation Xrotation Yrotation
                    JOINT head
                    {
                      OFFSET -1.89342e-17 4.5512 0.720839
                      CHANNELS 6 Xposition Yposition Zposition Zrotation Xrotation Yrotation
                      End Site
                      {
                        OFFSET 0 0.1 0
                      }
                    }
                  }
                }
                JOINT l_shoulder
                {
                  OFFSET 1.16172 -7.16758 7.09827
                  CHANNELS 6 Xposition Yposition Zposition Zrotation Xrotation Yrotation
                  JOINT l_up_arm
                  {
                    OFFSET 12.2059 3.06167 -3.07978
                    CHANNELS 6 Xposition Yposition Zposition Zrotation Xrotation Yrotation
                    JOINT l_low_arm
                    {
                      OFFSET 27.5197 0.056351 0.129118
                      CHANNELS 6 Xposition Yposition Zposition Zrotation Xrotation Yrotation
                      JOINT l_hand
                      {
                        OFFSET 22.8331 0.0467536 0.107129
                        CHANNELS 6 Xposition Yposition Zposition Zrotation Xrotation Yrotation
                        End Site
                        {
                          OFFSET 0.1 0 0
                        }
                      }
                    }
                  }
                }
                JOINT r_shoulder
                {
                  OFFSET -1.16172 -7.16756 7.09818
                  CHANNELS 6 Xposition Yposition Zposition Zrotation Xrotation Yrotation
                  JOINT r_up_arm
                  {
                    OFFSET -12.2059 3.06167 -3.07978
                    CHANNELS 6 Xposition Yposition Zposition Zrotation Xrotation Yrotation
                    JOINT r_low_arm
                    {
                      OFFSET -27.5197 0.056351 0.129118
                      CHANNELS 6 Xposition Yposition Zposition Zrotation Xrotation Yrotation
                      JOINT r_hand
                      {
                        OFFSET -22.8331 0.0467534 0.107129
                        CHANNELS 6 Xposition Yposition Zposition Zrotation Xrotation Yrotation
                        End Site
                        {
                          OFFSET -0.1 0 0
                        }
                      }
                    }
                  }
                }
              }
            }
          }
        }
      }
    }
  }
  JOINT l_up_leg
  {
    OFFSET 8.70282 -3.96247 1.9152
    CHANNELS 6 Xposition Yposition Zposition Zrotation Xrotation Yrotation
    JOINT l_low_leg
    {
      OFFSET -0.803084 -36.5309 -0.617314
      CHANNELS 6 Xposition Yposition Zposition Zrotation Xrotation Yrotation
      JOINT l_foot
      {
        OFFSET -2.19176 -38.0664 -5.69911
        CHANNELS 6 Xposition Yposition Zposition Zrotation Xrotation Yrotation
        JOINT l_toes
        {
          OFFSET 0.734061 -9.31305 11.7736
          CHANNELS 6 Xposition Yposition Zposition Zrotation Xrotation Yrotation
          End Site
          {
            OFFSET 0 0 0.1
          }
        }
      }
    }
  }
  JOINT r_up_leg
  {
    OFFSET -8.70282 -3.96247 1.9152
    CHANNELS 6 Xposition Yposition Zposition Zrotation Xrotation Yrotation
    JOINT r_low_leg
    {
      OFFSET 0.803084 -36.5309 -0.617314
      CHANNELS 6 Xposition Yposition Zposition Zrotation Xrotation Yrotation
      JOINT r_foot
      {
        OFFSET 2.19176 -38.0664 -5.69911
        CHANNELS 6 Xposition Yposition Zposition Zrotation Xrotation Yrotation
        JOINT r_toes
        {
          OFFSET -0.734061 -9.31305 11.7736
          CHANNELS 6 Xposition Yposition Zposition Zrotation Xrotation Yrotation
          End Site
          {
            OFFSET 0 0 0.1
          }
        }
      }
    }
  }
}
MOTION
Frames: 5
Frame Time: 0.016667
449.972 78.9809 906.511 -20.7638 -9.95729 84.8222 0 4.78511 -1.08482 -1.15326 -1.92498 1.04696 0 5.29195 1.00949 -0.913559 -1.93587 0.733231 -9.66735e-18 5.64355 0.108362 -0.622507 -2.10579 0.699842 -1.04072e-17 6.12977 -0.417886 -0.327524 -2.89815 0.675828 -1.85891e-17 7.16586 -1.41888 0.0511219 -1.58091 0.670376 -2.38665e-17 8.94839 -0.861631 0.486145 -1.9978 0.379725 -2.73615e-17 9.94144 1.48576 -0.110168 1.18992 0.0672205 -1.21725e-17 4.50977 0.67399 -3.1642 -16.1934 -8.39789 -1.70689e-17 4.54241 0.39741 0.511006 -2.68069 -3.73278 -1.89342e-17 4.5512 0.720839 5.07049 1.93024 1.24321 1.16172 -7.16758 7.09827 -1.89374 4.57246 -0.996137 12.2059 3.06167 -3.07978 -71.431 10.1774 22.1788 27.5197 0.056351 0.129118 11.7813 -9.55203 -78.5939 22.8331 0.0467536 0.107129 -2.44747 -38.9439 -2.90728 -1.16172 -7.16756 7.09818 -0.353455 4.31151 0.951086 -12.2059 3.06167 -3.07978 86.972 27.586 -7.97105 -27.5197 0.056351 0.129118 -10.9432 -7.0135 65.8111 -22.8331 0.0467534 0.107129 9.88292 -17.7786 8.00184 8.70282 -3.96247 1.9152 4.72982 -51.0362 -11.9072 -0.803084 -36.5309 -0.617314 -12.492 39.6285 3.78952 -2.19176 -38.0664 -5.69911 15.4448 -18.5679 16.8913 0.734061 -9.31305 11.7736 2.19945e-15 -5.77858e-16 -2.85289e-16 -8.70282 -3.96247 1.9152 0.779553 -34.4342 -3.71189 0.803084 -36.5309 -0.617314 79.6763 75.6998 -64.0633 2.19176 -38.0664 -5.69911 6.04509 20.6735 -15.1408 -0.734061 -9.31305 11.7736 -9.65788e-16 -3.70085e-16 -1.25642e-14 
454.94 78.5301 907.273 -20.4469 -8.44831 85.4829 0 4.78511 -1.08482 -1.86642 -0.978053 0.769472 0 5.29195 1.00949 -1.55152 -1.24476 0.359995 -9.66735e-18 5.64355 0.108362 -1.11308 -1.75726 0.336734 -1.04072e-17 6.12977 -0.417886 -0.677862 -3.21678 0.317828 -1.85891e-17 7.16586 -1.41888 -0.14981 -2.22944 0.383476 -2.38665e-17 8.94839 -0.861631 0.364539 -2.87578 0.0811758 -2.73615e-17 9.94144 1.48576 -0.139195 1.26604 0.125272 -1.21725e-17 4.50977 0.67399 -3.11511 -17.2243 -7.79001 -1.70689e-17 4.54241 0.39741 0.982809 -2.38864 -3.4437 -1.89342e-17 4.5512 0.720839 5.2761 2.57217 1.13858 1.16172 -7.16758 7.09827 -1.86026 5.03956 -1.57254 12.2059 3.06167 -3.07978 -68.5794 9.79822 19.4363 27.5197 0.056351 0.129118 11.7927 -9.60694 -78.8623 22.8331 0.0467536 0.107129 -3.23311 -38.0736 -4.1537 -1.16172 -7.16756 7.09818 0.860389 5.36021 1.86515 -12.2059 3.06167 -3.07978 86.4155 25.3259 -8.4597 -27.5197 0.056351 0.129118 -10.4517 -6.05701 60.688 -22.8331 0.0467534 0.107129 7.73418 -16.1824 6.86896 8.70282 -3.96247 1.9152 2.84789 -49.7045 -13.2056 -0.803084 -36.5309 -0.617314 -15.1634 45.1588 5.49384 -2.19176 -38.0664 -5.69911 17.8805 -26.1118 18.7008 0.734061 -9.31305 11.7736 2.03992e-15 -5.8475e-16 -2.75906e-16 -8.70282 -3.96247 1.9152 -3.12108 -41.2452 -3.90127 0.803084 -36.5309 -0.617314 105.406 75.5311 -88.9051 2.19176 -38.0664 -5.69911 7.08016 20.3397 -15.2738 -0.734061 -9.31305 11.7736 -6.00124e-16 -3.85884e-16 -1.25795e-14 
460.018 78.5564 907.988 -17.3678 -5.82198 85.826 0 4.78511 -1.08482 -2.7342 0.449286 0.606901 0 5.29195 1.00949 -2.35096 -0.128437 0.0988946 -9.66735e-18 5.64355 0.108362 -1.75887 -0.974009 0.0809918 -1.04072e-17 6.12977 -0.417886 -1.17822 -3.01013 0.0606126 -1.85891e-17 7.16586 -1.41888 -0.462266 -2.54218 0.201704 -2.38665e-17 8.94839 -0.861631 0.201943 -3.3875 -0.0794404 -2.73615e-17 9.94144 1.48576 -0.170946 1.31959 0.166955 -1.21725e-17 4.50977 0.67399 -2.60475 -15.6518 -6.63184 -1.70689e-17 4.54241 0.39741 1.35977 -2.96196 -2.98013 -1.89342e-17 4.5512 0.720839 5.10324 1.40255 1.30094 1.16172 -7.16758 7.09827 -0.873143 5.11704 -1.62148 12.2059 3.06167 -3.07978 -66.3355 9.9414 16.4313 27.5197 0.056351 0.129118 11.7978 -9.63189 -78.9841 22.8331 0.0467536 0.107129 -4.46954 -37.3741 -5.57801 -1.16172 -7.16756 7.09818 1.11984 5.97272 2.09328 -12.2059 3.06167 -3.07978 86.6243 24.1914 -8.48444 -27.5197 0.056351 0.129118 -9.81632 -5.06131 55.0607 -22.8331 0.0467534 0.107129 6.06603 -15.5208 6.45478 8.70282 -3.96247 1.9152 0.368302 -42.5686 -13.2067 -0.803084 -36.5309 -0.617314 -14.7991 44.4628 5.24957 -2.19176 -38.0664 -5.69911 16.6106 -26.1692 18.2825 0.734061 -9.31305 11.7736 4.8155e-16 -6.52079e-16 -2.05095e-16 -8.70282 -3.96247 1.9152 -6.9946 -45.7013 -2.3847 0.803084 -36.5309 -0.617314 120.42 73.9985 -103.327 2.19176 -38.0664 -5.69911 8.59256 19.4111 -15.4523 -0.734061 -9.31305 11.7736 -6.00124e-16 -3.85884e-16 -1.25795e-14 
465.033 79.0579 908.301 -13.1689 -3.95462 85.5191 0 4.78511 -1.08482 -3.19186 1.77375 0.4585 0 5.29195 1.00949 -2.76026 0.959361 -0.0683458 -9.66735e-18 5.64355 0.108362 -2.10296 -0.0790133 -0.0780708 -1.04072e-17 6.12977 -0.417886 -1.4603 -2.37368 -0.0964307 -1.85891e-17 7.16586 -1.41888 -0.67418 -2.3968 0.0792253 -2.38665e-17 8.94839 -0.861631 0.0526459 -3.33657 -0.163464 -2.73615e-17 9.94144 1.48576 -0.20097 1.32235 0.199163 -1.21725e-17 4.50977 0.67399 -1.63911 -12.1572 -4.52301 -1.70689e-17 4.54241 0.39741 1.52108 -4.50666 -2.10458 -1.89342e-17 4.5512 0.720839 4.21481 -1.03488 1.31602 1.16172 -7.16758 7.09827 1.2155 4.62646 -0.942175 12.2059 3.06167 -3.07978 -65.7771 10.7472 13.4864 27.5197 0.056351 0.129118 11.864 -9.98544 -80.706 22.8331 0.0467536 0.107129 -4.2201 -36.4799 -5.33372 -1.16172 -7.16756 7.09818 0.133069 5.97848 1.4844 -12.2059 3.06167 -3.07978 87.3976 23.5067 -8.67358 -27.5197 0.056351 0.129118 -9.17328 -4.23307 50.0624 -22.8331 0.0467534 0.107129 5.93625 -15.5727 7.42932 8.70282 -3.96247 1.9152 -1.42537 -33.6471 -13.0254 -0.803084 -36.5309 -0.617314 -13.9717 42.8158 4.70805 -2.19176 -38.0664 -5.69911 15.3708 -26.0613 18.103 0.734061 -9.31305 11.7736 -2.81683e-16 -6.85054e-16 -1.73293e-16 -8.70282 -3.96247 1.9152 -9.4781 -48.2349 0.131273 0.803084 -36.5309 -0.617314 124.728 73.2868 -107.437 2.19176 -38.0664 -5.69911 9.10924 17.0651 -15.4419 -0.734061 -9.31305 11.7736 -6.00124e-16 -3.85884e-16 -1.25795e-14 
469.971 79.8255 908.202 -11.3122 -4.74848 86.1119 0 4.78511 -1.08482 -2.82969 2.1405 0.0758839 0 5.29195 1.00949 -2.38853 1.34034 -0.369706 -9.66735e-18 5.64355 0.108362 -1.81422 0.326892 -0.367465 -1.04072e-17 6.12977 -0.417886 -1.24166 -1.83411 -0.379491 -1.85891e-17 7.16586 -1.41888 -0.617971 -1.99608 -0.226093 -2.38665e-17 8.94839 -0.861631 -0.0763367 -2.91534 -0.423396 -2.73615e-17 9.94144 1.48576 -0.244158 1.25846 0.232347 -1.21725e-17 4.50977 0.67399 -0.875139 -8.69732 -2.31727 -1.70689e-17 4.54241 0.39741 1.38939 -5.71824 -1.14676 -1.89342e-17 4.5512 0.720839 3.19727 -3.671 1.09599 1.16172 -7.16758 7.09827 4.30555 3.74322 0.372679 12.2059 3.06167 -3.07978 -68.0893 11.1747 11.3297 27.5197 0.056351 0.129118 11.9765 -10.8177 -84.734 22.8331 0.0467536 0.107129 -1.7463 -34.0725 -3.09152 -1.16172 -7.16756 7.09818 -1.63341 5.53953 0.646783 -12.2059 3.06167 -3.07978 88.3906 22.0052 -10.2689 -27.5197 0.056351 0.129118 -8.9284 -3.95327 48.2892 -22.8331 0.0467534 0.107129 6.88284 -15.0046 9.02115 8.70282 -3.96247 1.9152 -1.33678 -27.3822 -13.8915 -0.803084 -36.5309 -0.617314 -13.2239 41.2449 4.23542 -2.19176 -38.0664 -5.69911 14.2084 -24.8765 17.7916 0.734061 -9.31305 11.7736 -2.71048e-16 -6.84595e-16 -1.73958e-16 -8.70282 -3.96247 1.9152 -10.9126 -51.0514 0.350073 0.803084 -36.5309 -0.617314 120.048 74.0532 -102.971 2.19176 -38.0664 -5.69911 7.89462 13.841 -15.253 -0.734061 -9.31305 11.7736 -5.78853e-16 -3.86803e-16 -1.25805e-14 
